<svg width="30" height="30" viewBox="0 0 30 30" fill="none" xmlns="http://www.w3.org/2000/svg">
<g id="access time" clip-path="url(#clip0_806_12766)">
<path id="Vector" d="M14.9875 2.5C8.0875 2.5 2.5 8.1 2.5 15C2.5 21.9 8.0875 27.5 14.9875 27.5C21.9 27.5 27.5 21.9 27.5 15C27.5 8.1 21.9 2.5 14.9875 2.5ZM15 25C9.475 25 5 20.525 5 15C5 9.475 9.475 5 15 5C20.525 5 25 9.475 25 15C25 20.525 20.525 25 15 25ZM14.725 8.75H14.65C14.15 8.75 13.75 9.15 13.75 9.65V15.55C13.75 15.9875 13.975 16.4 14.3625 16.625L19.55 19.7375C19.975 19.9875 20.525 19.8625 20.775 19.4375C20.8378 19.3363 20.8795 19.2235 20.8978 19.1058C20.916 18.9881 20.9104 18.8679 20.8813 18.7525C20.8521 18.637 20.8 18.5286 20.728 18.4337C20.6561 18.3387 20.5658 18.2593 20.4625 18.2L15.625 15.325V9.65C15.625 9.15 15.225 8.75 14.725 8.75Z" fill="#101010"/>
</g>
<defs>
<clipPath id="clip0_806_12766">
<rect width="30" height="30" fill="white"/>
</clipPath>
</defs>
</svg>
