<svg width="57" height="62" viewBox="0 0 57 62" fill="none" xmlns="http://www.w3.org/2000/svg">
<g id="Frame 13299">
<rect width="55.2256" height="60.2461" transform="translate(56.042 61.1702) rotate(180)" fill="#90B8F3"/>
<path id="Rectangle 79" d="M19.1143 31.9651L19.1143 5.61152L37.2323 18.7883L19.1143 31.9651Z" fill="url(#paint0_linear_1505_2807)"/>
<path id="Rectangle 82" d="M19.1143 56.844L19.1143 30.4904L37.2323 43.6672L19.1143 56.844Z" fill="url(#paint1_linear_1505_2807)"/>
<path id="Rectangle 80" d="M31.4639 31.9651L31.4639 5.61152L49.5819 18.7883L31.4639 31.9651Z" fill="url(#paint2_linear_1505_2807)"/>
<path id="Rectangle 83" d="M31.4639 56.844L31.4639 30.4904L49.5819 43.6672L31.4639 56.844Z" fill="url(#paint3_linear_1505_2807)"/>
<path id="Rectangle 81" d="M7.66699 31.9651L7.66699 5.61152L25.7851 18.7883L7.66699 31.9651Z" fill="url(#paint4_linear_1505_2807)"/>
<path id="Rectangle 84" d="M7.66699 56.844L7.66699 30.4904L25.7851 43.6672L7.66699 56.844Z" fill="url(#paint5_linear_1505_2807)"/>
</g>
<defs>
<linearGradient id="paint0_linear_1505_2807" x1="21.8202" y1="18.6707" x2="34.2911" y2="18.6707" gradientUnits="userSpaceOnUse">
<stop stop-color="white" stop-opacity="0"/>
<stop offset="1" stop-color="white"/>
</linearGradient>
<linearGradient id="paint1_linear_1505_2807" x1="21.8202" y1="43.5496" x2="34.2911" y2="43.5496" gradientUnits="userSpaceOnUse">
<stop stop-color="white" stop-opacity="0"/>
<stop offset="1" stop-color="white"/>
</linearGradient>
<linearGradient id="paint2_linear_1505_2807" x1="34.1698" y1="18.6707" x2="46.6407" y2="18.6707" gradientUnits="userSpaceOnUse">
<stop stop-color="white" stop-opacity="0"/>
<stop offset="1" stop-color="white"/>
</linearGradient>
<linearGradient id="paint3_linear_1505_2807" x1="34.1698" y1="43.5496" x2="46.6407" y2="43.5496" gradientUnits="userSpaceOnUse">
<stop stop-color="white" stop-opacity="0"/>
<stop offset="1" stop-color="white"/>
</linearGradient>
<linearGradient id="paint4_linear_1505_2807" x1="10.3729" y1="18.6707" x2="22.8438" y2="18.6707" gradientUnits="userSpaceOnUse">
<stop stop-color="white" stop-opacity="0"/>
<stop offset="1" stop-color="white"/>
</linearGradient>
<linearGradient id="paint5_linear_1505_2807" x1="10.3729" y1="43.5496" x2="22.8438" y2="43.5496" gradientUnits="userSpaceOnUse">
<stop stop-color="white" stop-opacity="0"/>
<stop offset="1" stop-color="white"/>
</linearGradient>
</defs>
</svg>
