<svg width="17" height="17" viewBox="0 0 17 17" fill="none" xmlns="http://www.w3.org/2000/svg">
<g id="uiw:date">
<path id="Vector" d="M4.72359 0.0952148C4.87354 0.0952148 5.01735 0.154781 5.12338 0.26081C5.22941 0.36684 5.28897 0.510646 5.28897 0.660594V1.71785H11.3603V0.667863C11.3603 0.517915 11.4199 0.374109 11.5259 0.26808C11.632 0.162051 11.7758 0.102484 11.9257 0.102484C12.0757 0.102484 12.2195 0.162051 12.3255 0.26808C12.4315 0.374109 12.4911 0.517915 12.4911 0.667863V1.71785H14.6799C15.1082 1.71785 15.519 1.88793 15.8219 2.1907C16.1248 2.49346 16.2951 2.90413 16.2953 3.33241V14.6343C16.2951 15.0626 16.1248 15.4733 15.8219 15.7761C15.519 16.0788 15.1082 16.2489 14.6799 16.2489H1.75697C1.32869 16.2489 0.917934 16.0788 0.615017 15.7761C0.3121 15.4733 0.141816 15.0626 0.141602 14.6343L0.141602 3.33241C0.141816 2.90413 0.3121 2.49346 0.615017 2.1907C0.917934 1.88793 1.32869 1.71785 1.75697 1.71785H4.15821V0.659786C4.15843 0.509978 4.21809 0.366379 4.3241 0.260525C4.4301 0.15467 4.57379 0.0952147 4.72359 0.0952148ZM1.27236 6.3483V14.6343C1.27236 14.698 1.28489 14.761 1.30925 14.8198C1.3336 14.8786 1.3693 14.932 1.4143 14.977C1.4593 15.022 1.51272 15.0577 1.57152 15.0821C1.63031 15.1064 1.69333 15.1189 1.75697 15.1189H14.6799C14.7436 15.1189 14.8066 15.1064 14.8654 15.0821C14.9242 15.0577 14.9776 15.022 15.0226 14.977C15.0676 14.932 15.1033 14.8786 15.1276 14.8198C15.152 14.761 15.1645 14.698 15.1645 14.6343V6.35961L1.27236 6.3483ZM5.52643 11.9027V13.2484H4.18002V11.9027H5.52643ZM8.89124 11.9027V13.2484H7.54564V11.9027H8.89124ZM12.2569 11.9027V13.2484H10.9105V11.9027H12.2569ZM5.52643 8.69059V10.0362H4.18002V8.69059H5.52643ZM8.89124 8.69059V10.0362H7.54564V8.69059H8.89124ZM12.2569 8.69059V10.0362H10.9105V8.69059H12.2569ZM4.15821 2.8478H1.75697C1.69333 2.8478 1.63031 2.86034 1.57152 2.88469C1.51272 2.90904 1.4593 2.94474 1.4143 2.98974C1.3693 3.03474 1.3336 3.08816 1.30925 3.14696C1.28489 3.20576 1.27236 3.26877 1.27236 3.33241V5.21835L15.1645 5.22966V3.33241C15.1645 3.26877 15.152 3.20576 15.1276 3.14696C15.1033 3.08816 15.0676 3.03474 15.0226 2.98974C14.9776 2.94474 14.9242 2.90904 14.8654 2.88469C14.8066 2.86034 14.7436 2.8478 14.6799 2.8478H12.4911V3.59814C12.4911 3.74809 12.4315 3.8919 12.3255 3.99792C12.2195 4.10395 12.0757 4.16352 11.9257 4.16352C11.7758 4.16352 11.632 4.10395 11.5259 3.99792C11.4199 3.8919 11.3603 3.74809 11.3603 3.59814V2.8478H5.28897V3.59087C5.28897 3.74082 5.22941 3.88463 5.12338 3.99065C5.01735 4.09668 4.87354 4.15625 4.72359 4.15625C4.57365 4.15625 4.42984 4.09668 4.32381 3.99065C4.21778 3.88463 4.15821 3.74082 4.15821 3.59087V2.8478Z" fill="white"/>
</g>
</svg>
