<svg width="17" height="17" viewBox="0 0 17 17" fill="none" xmlns="http://www.w3.org/2000/svg">
<g id="carbon:time">
<path id="Vector" d="M8.84068 15.2392C7.44291 15.2392 6.07653 14.8247 4.91433 14.0482C3.75213 13.2716 2.8463 12.1679 2.3114 10.8765C1.7765 9.58512 1.63654 8.16414 1.90924 6.79323C2.18193 5.42232 2.85502 4.16306 3.84339 3.17468C4.83176 2.18631 6.09102 1.51323 7.46193 1.24053C8.83284 0.967844 10.2538 1.1078 11.5452 1.6427C12.8366 2.1776 13.9403 3.08343 14.7169 4.24563C15.4934 5.40783 15.9079 6.77421 15.9079 8.17198C15.9079 10.0463 15.1633 11.8439 13.838 13.1693C12.5126 14.4946 10.715 15.2392 8.84068 15.2392ZM8.84068 2.11434C7.64259 2.11434 6.47141 2.46962 5.47524 3.13524C4.47906 3.80086 3.70264 4.74693 3.24416 5.85382C2.78567 6.96071 2.66571 8.17869 2.89944 9.35376C3.13318 10.5288 3.71011 11.6082 4.55728 12.4554C5.40446 13.3025 6.48383 13.8795 7.65889 14.1132C8.83396 14.3469 10.0519 14.227 11.1588 13.7685C12.2657 13.31 13.2118 12.5336 13.8774 11.5374C14.543 10.5412 14.8983 9.37006 14.8983 8.17198C14.8983 6.56539 14.2601 5.02461 13.1241 3.88858C11.988 2.75256 10.4473 2.11434 8.84068 2.11434Z" fill="white"/>
<path id="Vector_2" d="M11.1578 11.2005L8.33594 8.37861V3.62842H9.34554V7.95962L11.8696 10.4887L11.1578 11.2005Z" fill="white"/>
</g>
</svg>
