<svg width="28" height="24" viewBox="0 0 28 24" fill="none" xmlns="http://www.w3.org/2000/svg">
<g id="Cosmos-09 1" clip-path="url(#clip0_1505_2764)">
<path id="Vector" d="M19.0383 2.70995C14.2065 0.163918 7.12349 1.53683 4.06976 7.08483C0.992691 12.6755 3.79042 19.2711 8.50203 21.8684C12.7466 24.2087 17.2835 22.6129 18.0532 22.3286C15.8799 19.9491 15.6481 16.4322 17.4245 13.9229C19.0253 11.6629 21.9649 10.6085 24.7669 11.3197C24.6779 10.6921 23.832 5.23208 19.0383 2.70995ZM11.0922 14.7716C10.3917 16.048 8.77186 16.5168 7.48499 15.8243C6.19206 15.1328 5.71208 13.5413 6.4126 12.2648C7.11311 10.9884 8.73121 10.5137 10.0259 11.2113C11.3127 11.9037 11.7919 13.4952 11.0922 14.7725V14.7716ZM13.9038 7.00201C13.4748 7.77641 12.4906 8.0667 11.7002 7.64407C10.9097 7.22229 10.6217 6.24896 11.0498 5.46858C11.4788 4.69419 12.463 4.40389 13.2534 4.82653C14.0378 5.25001 14.3319 6.22164 13.9038 7.00201Z" fill="white"/>
</g>
<defs>
<clipPath id="clip0_1505_2764">
<rect width="27.471" height="23.1786" fill="white" transform="translate(0.136719 0.690186)"/>
</clipPath>
</defs>
</svg>
