<svg width="56" height="62" viewBox="0 0 56 62" fill="none" xmlns="http://www.w3.org/2000/svg">
<g id="Frame 13296">
<rect width="55.2256" height="60.2461" transform="translate(55.4932 61.1052) rotate(180)" fill="#9981FF"/>
<path id="Rectangle 79" d="M18.5654 31.8999L18.5654 5.54634L36.6835 18.7231L18.5654 31.8999Z" fill="url(#paint0_linear_1505_2786)"/>
<path id="Rectangle 82" d="M18.5654 56.7783L18.5654 30.4248L36.6835 43.6015L18.5654 56.7783Z" fill="url(#paint1_linear_1505_2786)"/>
<path id="Rectangle 80" d="M30.915 31.8999L30.915 5.54634L49.0331 18.7231L30.915 31.8999Z" fill="url(#paint2_linear_1505_2786)"/>
<path id="Rectangle 83" d="M30.915 56.7783L30.915 30.4248L49.0331 43.6015L30.915 56.7783Z" fill="url(#paint3_linear_1505_2786)"/>
<path id="Rectangle 81" d="M7.11914 31.8999L7.11914 5.54634L25.2372 18.7231L7.11914 31.8999Z" fill="url(#paint4_linear_1505_2786)"/>
<path id="Rectangle 84" d="M7.11914 56.7783L7.11914 30.4248L25.2372 43.6015L7.11914 56.7783Z" fill="url(#paint5_linear_1505_2786)"/>
</g>
<defs>
<linearGradient id="paint0_linear_1505_2786" x1="21.2714" y1="18.6055" x2="33.7423" y2="18.6055" gradientUnits="userSpaceOnUse">
<stop stop-color="white" stop-opacity="0"/>
<stop offset="1" stop-color="white"/>
</linearGradient>
<linearGradient id="paint1_linear_1505_2786" x1="21.2714" y1="43.4839" x2="33.7423" y2="43.4839" gradientUnits="userSpaceOnUse">
<stop stop-color="white" stop-opacity="0"/>
<stop offset="1" stop-color="white"/>
</linearGradient>
<linearGradient id="paint2_linear_1505_2786" x1="33.621" y1="18.6055" x2="46.0919" y2="18.6055" gradientUnits="userSpaceOnUse">
<stop stop-color="white" stop-opacity="0"/>
<stop offset="1" stop-color="white"/>
</linearGradient>
<linearGradient id="paint3_linear_1505_2786" x1="33.621" y1="43.4839" x2="46.0919" y2="43.4839" gradientUnits="userSpaceOnUse">
<stop stop-color="white" stop-opacity="0"/>
<stop offset="1" stop-color="white"/>
</linearGradient>
<linearGradient id="paint4_linear_1505_2786" x1="9.82509" y1="18.6055" x2="22.296" y2="18.6055" gradientUnits="userSpaceOnUse">
<stop stop-color="white" stop-opacity="0"/>
<stop offset="1" stop-color="white"/>
</linearGradient>
<linearGradient id="paint5_linear_1505_2786" x1="9.82509" y1="43.4839" x2="22.296" y2="43.4839" gradientUnits="userSpaceOnUse">
<stop stop-color="white" stop-opacity="0"/>
<stop offset="1" stop-color="white"/>
</linearGradient>
</defs>
</svg>
