<svg width="56" height="62" viewBox="0 0 56 62" fill="none" xmlns="http://www.w3.org/2000/svg">
<g id="Frame 13296">
<rect width="55.2256" height="60.2461" transform="translate(55.5908 61.1702) rotate(180)" fill="#C7F16C"/>
<path id="Rectangle 79" d="M18.6631 31.9648L18.6631 5.61128L36.7812 18.7881L18.6631 31.9648Z" fill="url(#paint0_linear_1505_2798)"/>
<path id="Rectangle 82" d="M18.6631 56.8438L18.6631 30.4902L36.7812 43.667L18.6631 56.8438Z" fill="url(#paint1_linear_1505_2798)"/>
<path id="Rectangle 80" d="M31.0127 31.9648L31.0127 5.61128L49.1308 18.7881L31.0127 31.9648Z" fill="url(#paint2_linear_1505_2798)"/>
<path id="Rectangle 83" d="M31.0127 56.8438L31.0127 30.4902L49.1308 43.667L31.0127 56.8438Z" fill="url(#paint3_linear_1505_2798)"/>
<path id="Rectangle 81" d="M7.21484 31.9648L7.21484 5.61128L25.3329 18.7881L7.21484 31.9648Z" fill="url(#paint4_linear_1505_2798)"/>
<path id="Rectangle 84" d="M7.21484 56.8438L7.21484 30.4902L25.3329 43.667L7.21484 56.8438Z" fill="url(#paint5_linear_1505_2798)"/>
</g>
<defs>
<linearGradient id="paint0_linear_1505_2798" x1="21.369" y1="18.6704" x2="33.8399" y2="18.6704" gradientUnits="userSpaceOnUse">
<stop stop-color="white" stop-opacity="0"/>
<stop offset="1" stop-color="white"/>
</linearGradient>
<linearGradient id="paint1_linear_1505_2798" x1="21.369" y1="43.5493" x2="33.8399" y2="43.5493" gradientUnits="userSpaceOnUse">
<stop stop-color="white" stop-opacity="0"/>
<stop offset="1" stop-color="white"/>
</linearGradient>
<linearGradient id="paint2_linear_1505_2798" x1="33.7186" y1="18.6704" x2="46.1895" y2="18.6704" gradientUnits="userSpaceOnUse">
<stop stop-color="white" stop-opacity="0"/>
<stop offset="1" stop-color="white"/>
</linearGradient>
<linearGradient id="paint3_linear_1505_2798" x1="33.7186" y1="43.5493" x2="46.1895" y2="43.5493" gradientUnits="userSpaceOnUse">
<stop stop-color="white" stop-opacity="0"/>
<stop offset="1" stop-color="white"/>
</linearGradient>
<linearGradient id="paint4_linear_1505_2798" x1="9.92079" y1="18.6704" x2="22.3917" y2="18.6704" gradientUnits="userSpaceOnUse">
<stop stop-color="white" stop-opacity="0"/>
<stop offset="1" stop-color="white"/>
</linearGradient>
<linearGradient id="paint5_linear_1505_2798" x1="9.92079" y1="43.5493" x2="22.3917" y2="43.5493" gradientUnits="userSpaceOnUse">
<stop stop-color="white" stop-opacity="0"/>
<stop offset="1" stop-color="white"/>
</linearGradient>
</defs>
</svg>
