<svg width="34" height="34" viewBox="0 0 34 34" fill="none" xmlns="http://www.w3.org/2000/svg">
<g id="List Message">
<g id="1">
<path id="Vector" d="M23.375 17H15.9375C15.6557 17 15.3855 17.1119 15.1862 17.3112C14.9869 17.5105 14.875 17.7807 14.875 18.0625C14.875 18.3443 14.9869 18.6145 15.1862 18.8138C15.3855 19.0131 15.6557 19.125 15.9375 19.125H23.375C23.6568 19.125 23.927 19.0131 24.1263 18.8138C24.3256 18.6145 24.4375 18.3443 24.4375 18.0625C24.4375 17.7807 24.3256 17.5105 24.1263 17.3112C23.927 17.1119 23.6568 17 23.375 17Z" fill="#101010"/>
<path id="Vector_2" d="M25.5 7.4375H8.5C7.65462 7.4375 6.84387 7.77333 6.2461 8.3711C5.64833 8.96887 5.3125 9.77962 5.3125 10.625V21.25C5.3125 22.0954 5.64833 22.9061 6.2461 23.5039C6.84387 24.1017 7.65462 24.4375 8.5 24.4375H9.5625V28.6875C9.56298 28.8857 9.6189 29.0799 9.72395 29.248C9.829 29.4161 9.97899 29.5515 10.157 29.6388C10.3349 29.7261 10.5338 29.7619 10.731 29.7421C10.9283 29.7224 11.116 29.6478 11.2731 29.5269L17.8181 24.4375H25.5C26.3454 24.4375 27.1561 24.1017 27.7539 23.5039C28.3517 22.9061 28.6875 22.0954 28.6875 21.25V10.625C28.6875 9.77962 28.3517 8.96887 27.7539 8.3711C27.1561 7.77333 26.3454 7.4375 25.5 7.4375ZM26.5625 21.25C26.5625 21.5318 26.4506 21.802 26.2513 22.0013C26.052 22.2006 25.7818 22.3125 25.5 22.3125H17.4569C17.2221 22.3132 16.9942 22.3917 16.8088 22.5356L11.6875 26.5625V23.375C11.6875 23.0932 11.5756 22.823 11.3763 22.6237C11.177 22.4244 10.9068 22.3125 10.625 22.3125H8.5C8.21821 22.3125 7.94796 22.2006 7.7487 22.0013C7.54944 21.802 7.4375 21.5318 7.4375 21.25V10.625C7.4375 10.3432 7.54944 10.073 7.7487 9.8737C7.94796 9.67444 8.21821 9.5625 8.5 9.5625H25.5C25.7818 9.5625 26.052 9.67444 26.2513 9.8737C26.4506 10.073 26.5625 10.3432 26.5625 10.625V21.25Z" fill="#101010"/>
<path id="Vector_3" d="M11.6875 19.125C12.2743 19.125 12.75 18.6493 12.75 18.0625C12.75 17.4757 12.2743 17 11.6875 17C11.1007 17 10.625 17.4757 10.625 18.0625C10.625 18.6493 11.1007 19.125 11.6875 19.125Z" fill="#101010"/>
<path id="Vector_4" d="M23.375 12.75H15.9375C15.6557 12.75 15.3855 12.8619 15.1862 13.0612C14.9869 13.2605 14.875 13.5307 14.875 13.8125C14.875 14.0943 14.9869 14.3645 15.1862 14.5638C15.3855 14.7631 15.6557 14.875 15.9375 14.875H23.375C23.6568 14.875 23.927 14.7631 24.1263 14.5638C24.3256 14.3645 24.4375 14.0943 24.4375 13.8125C24.4375 13.5307 24.3256 13.2605 24.1263 13.0612C23.927 12.8619 23.6568 12.75 23.375 12.75Z" fill="#101010"/>
<path id="Vector_5" d="M11.6875 14.875C12.2743 14.875 12.75 14.3993 12.75 13.8125C12.75 13.2257 12.2743 12.75 11.6875 12.75C11.1007 12.75 10.625 13.2257 10.625 13.8125C10.625 14.3993 11.1007 14.875 11.6875 14.875Z" fill="#101010"/>
</g>
</g>
</svg>
