<svg width="12" height="15" viewBox="0 0 12 15" fill="none" xmlns="http://www.w3.org/2000/svg">
<g id="Group">
<path id="Vector" d="M5.98131 8.03805C7.06369 8.03805 7.94113 7.16061 7.94113 6.07823C7.94113 4.99585 7.06369 4.11841 5.98131 4.11841C4.89893 4.11841 4.02148 4.99585 4.02148 6.07823C4.02148 7.16061 4.89893 8.03805 5.98131 8.03805Z" stroke="white" stroke-width="1.30655" stroke-linecap="round" stroke-linejoin="round"/>
<path id="Vector_2" d="M5.98107 0.852051C4.595 0.852051 3.2657 1.40267 2.2856 2.38277C1.3055 3.36287 0.754883 4.69217 0.754883 6.07824C0.754883 7.31424 1.0175 8.12299 1.73479 9.01798L5.98107 13.9175L10.2274 9.01798C10.9446 8.12299 11.2073 7.31424 11.2073 6.07824C11.2073 4.69217 10.6567 3.36287 9.67655 2.38277C8.69645 1.40267 7.36715 0.852051 5.98107 0.852051Z" stroke="white" stroke-width="1.30655" stroke-linecap="round" stroke-linejoin="round"/>
</g>
</svg>
