<svg width="17" height="13" viewBox="0 0 17 13" fill="none" xmlns="http://www.w3.org/2000/svg">
<g id="logos:google-meet">
<path id="Vector" d="M9.52441 6.37432L11.0066 8.06849L12.9998 9.34208L13.3465 6.38501L12.9998 3.49463L10.9684 4.61345L9.52441 6.37432Z" fill="#00832D"/>
<path id="Vector_2" d="M0.923828 9.06647V11.5863C0.923828 12.1617 1.39086 12.6288 1.96633 12.6288H4.48619L5.00798 10.7249L4.48619 9.06647L2.75739 8.54468L0.923828 9.06647Z" fill="#0066DA"/>
<path id="Vector_3" d="M4.48619 0.118896L0.923828 3.68126L2.75751 4.2018L4.48619 3.68126L4.99847 2.0454L4.48619 0.118896Z" fill="#E94235"/>
<path id="Vector_4" d="M0.923828 9.06721H4.48613V3.68091H0.923828V9.06721Z" fill="#2684FC"/>
<path id="Vector_5" d="M15.2757 1.62736L13 3.49429V9.34169L15.2851 11.2159C15.6272 11.4838 16.1276 11.2396 16.1276 10.8048V2.03013C16.1276 1.59048 15.6152 1.34746 15.2756 1.62742" fill="#00AC47"/>
<path id="Vector_6" d="M9.52473 6.37402V9.06658H4.48633V12.6289H11.9576C12.5331 12.6289 13.0001 12.1618 13.0001 11.5864V9.34179L9.52473 6.37402Z" fill="#00AC47"/>
<path id="Vector_7" d="M11.9576 0.118896H4.48633V3.68126H9.52473V6.37381L13.0001 3.49406V1.16146C13.0001 0.585987 12.5331 0.118956 11.9576 0.118956" fill="#FFBA00"/>
</g>
</svg>
