<svg width="32" height="32" viewBox="0 0 32 32" fill="none" xmlns="http://www.w3.org/2000/svg">
<g id="Note">
<path id="Vector" d="M23.9335 26.0667H8.06681C7.83656 26.0667 7.60856 26.0213 7.39584 25.9332C7.18311 25.8451 6.98983 25.716 6.82702 25.5531C6.6642 25.3903 6.53505 25.197 6.44694 24.9843C6.35883 24.7716 6.31348 24.5436 6.31348 24.3134V7.68668C6.31348 7.22167 6.4982 6.7757 6.82702 6.44689C7.15583 6.11808 7.6018 5.93335 8.06681 5.93335H23.9335C24.3985 5.93335 24.8445 6.11808 25.1733 6.44689C25.5021 6.7757 25.6868 7.22167 25.6868 7.68668V24.3134C25.6868 24.5436 25.6415 24.7716 25.5533 24.9843C25.4652 25.197 25.3361 25.3903 25.1733 25.5531C25.0105 25.716 24.8172 25.8451 24.6044 25.9332C24.3917 26.0213 24.1637 26.0667 23.9335 26.0667ZM23.9335 7.68668H8.06681V24.3134H23.9335V7.68668Z" fill="#101010"/>
<path id="Vector_2" d="M10.6663 10.3133C10.8391 10.3133 11.0079 10.3645 11.1515 10.4605C11.2951 10.5565 11.4071 10.6929 11.4732 10.8524C11.5393 11.012 11.5566 11.1876 11.5229 11.357C11.4892 11.5264 11.406 11.6821 11.2839 11.8042C11.1617 11.9263 11.0061 12.0095 10.8367 12.0432C10.6673 12.0769 10.4917 12.0596 10.3321 11.9935C10.1725 11.9274 10.0361 11.8155 9.94018 11.6719C9.84422 11.5282 9.79299 11.3594 9.79299 11.1867C9.79211 11.0717 9.81409 10.9578 9.85767 10.8514C9.90124 10.745 9.96554 10.6484 10.0468 10.5671C10.1281 10.4859 10.2247 10.4216 10.3311 10.378C10.4374 10.3344 10.5514 10.3124 10.6663 10.3133ZM10.6663 14.6667C10.8409 14.6653 11.012 14.716 11.1577 14.8122C11.3035 14.9084 11.4173 15.0457 11.4847 15.2068C11.5521 15.3679 11.5701 15.5454 11.5364 15.7167C11.5026 15.888 11.4187 16.0454 11.2952 16.1689C11.1718 16.2924 11.0143 16.3763 10.843 16.41C10.6717 16.4438 10.4942 16.4258 10.3331 16.3584C10.1721 16.2909 10.0347 16.1771 9.93852 16.0314C9.84233 15.8856 9.79168 15.7146 9.79299 15.54C9.79299 15.3084 9.88501 15.0862 10.0488 14.9224C10.2126 14.7587 10.4347 14.6667 10.6663 14.6667ZM10.6663 19.0667C10.8391 19.0667 11.0079 19.1179 11.1515 19.2138C11.2951 19.3098 11.4071 19.4462 11.4732 19.6058C11.5393 19.7654 11.5566 19.941 11.5229 20.1104C11.4892 20.2798 11.406 20.4354 11.2839 20.5575C11.1617 20.6797 11.0061 20.7628 10.8367 20.7965C10.6673 20.8302 10.4917 20.8129 10.3321 20.7468C10.1725 20.6807 10.0361 20.5688 9.94018 20.4252C9.84422 20.2816 9.79299 20.1127 9.79299 19.94C9.79211 19.8251 9.81409 19.7111 9.85767 19.6047C9.90124 19.4984 9.96554 19.4017 10.0468 19.3205C10.1281 19.2392 10.2247 19.1749 10.3311 19.1313C10.4374 19.0877 10.5514 19.0658 10.6663 19.0667ZM14.2197 10.3133H21.2797C21.5113 10.3133 21.7334 10.4053 21.8972 10.5691C22.061 10.7329 22.153 10.955 22.153 11.1867C22.153 11.4183 22.061 11.6404 21.8972 11.8042C21.7334 11.968 21.5113 12.06 21.2797 12.06H14.2197C13.988 12.06 13.7659 11.968 13.6021 11.8042C13.4383 11.6404 13.3463 11.4183 13.3463 11.1867C13.3463 10.955 13.4383 10.7329 13.6021 10.5691C13.7659 10.4053 13.988 10.3133 14.2197 10.3133ZM14.2197 14.6667H21.2797C21.499 14.6858 21.7031 14.7864 21.8519 14.9487C22.0006 15.111 22.0831 15.3232 22.0831 15.5433C22.0831 15.7635 22.0006 15.9756 21.8519 16.1379C21.7031 16.3002 21.499 16.4008 21.2797 16.42H14.2197C14.0004 16.4008 13.7962 16.3002 13.6474 16.1379C13.4987 15.9756 13.4162 15.7635 13.4162 15.5433C13.4162 15.3232 13.4987 15.111 13.6474 14.9487C13.7962 14.7864 14.0004 14.6858 14.2197 14.6667ZM14.2197 19.0667H21.253C21.4846 19.0667 21.7068 19.1587 21.8705 19.3224C22.0343 19.4862 22.1263 19.7084 22.1263 19.94C22.1263 20.1716 22.0343 20.3937 21.8705 20.5575C21.7068 20.7213 21.4846 20.8133 21.253 20.8133H14.2197C13.988 20.8133 13.7659 20.7213 13.6021 20.5575C13.4383 20.3937 13.3463 20.1716 13.3463 19.94C13.3463 19.7084 13.4383 19.4862 13.6021 19.3224C13.7659 19.1587 13.988 19.0667 14.2197 19.0667Z" fill="#101010"/>
</g>
</svg>
