<svg width="56" height="61" viewBox="0 0 56 61" fill="none" xmlns="http://www.w3.org/2000/svg">
<g id="Frame 13293">
<rect width="55.2256" height="60.2461" transform="translate(55.4932 60.5112) rotate(180)" fill="#FFD471"/>
<path id="Rectangle 79" d="M18.5674 31.3062L18.5674 4.95259L36.6855 18.1294L18.5674 31.3062Z" fill="url(#paint0_linear_1505_2819)"/>
<path id="Rectangle 82" d="M18.5674 56.1843L18.5674 29.8308L36.6855 43.0075L18.5674 56.1843Z" fill="url(#paint1_linear_1505_2819)"/>
<path id="Rectangle 80" d="M30.915 31.3062L30.915 4.95259L49.0331 18.1294L30.915 31.3062Z" fill="url(#paint2_linear_1505_2819)"/>
<path id="Rectangle 83" d="M30.915 56.1843L30.915 29.8308L49.0331 43.0075L30.915 56.1843Z" fill="url(#paint3_linear_1505_2819)"/>
<path id="Rectangle 81" d="M7.11914 31.3062L7.11914 4.95259L25.2372 18.1294L7.11914 31.3062Z" fill="url(#paint4_linear_1505_2819)"/>
<path id="Rectangle 84" d="M7.11914 56.1843L7.11914 29.8308L25.2372 43.0075L7.11914 56.1843Z" fill="url(#paint5_linear_1505_2819)"/>
</g>
<defs>
<linearGradient id="paint0_linear_1505_2819" x1="21.2733" y1="18.0117" x2="33.7442" y2="18.0117" gradientUnits="userSpaceOnUse">
<stop stop-color="white" stop-opacity="0"/>
<stop offset="1" stop-color="white"/>
</linearGradient>
<linearGradient id="paint1_linear_1505_2819" x1="21.2733" y1="42.8899" x2="33.7442" y2="42.8899" gradientUnits="userSpaceOnUse">
<stop stop-color="white" stop-opacity="0"/>
<stop offset="1" stop-color="white"/>
</linearGradient>
<linearGradient id="paint2_linear_1505_2819" x1="33.621" y1="18.0117" x2="46.0919" y2="18.0117" gradientUnits="userSpaceOnUse">
<stop stop-color="white" stop-opacity="0"/>
<stop offset="1" stop-color="white"/>
</linearGradient>
<linearGradient id="paint3_linear_1505_2819" x1="33.621" y1="42.8899" x2="46.0919" y2="42.8899" gradientUnits="userSpaceOnUse">
<stop stop-color="white" stop-opacity="0"/>
<stop offset="1" stop-color="white"/>
</linearGradient>
<linearGradient id="paint4_linear_1505_2819" x1="9.82509" y1="18.0117" x2="22.296" y2="18.0117" gradientUnits="userSpaceOnUse">
<stop stop-color="white" stop-opacity="0"/>
<stop offset="1" stop-color="white"/>
</linearGradient>
<linearGradient id="paint5_linear_1505_2819" x1="9.82509" y1="42.8899" x2="22.296" y2="42.8899" gradientUnits="userSpaceOnUse">
<stop stop-color="white" stop-opacity="0"/>
<stop offset="1" stop-color="white"/>
</linearGradient>
</defs>
</svg>
