<svg width="56" height="62" viewBox="0 0 56 62" fill="none" xmlns="http://www.w3.org/2000/svg">
<g id="Frame 13293">
<rect width="55.2256" height="60.2461" transform="translate(55.3652 61.1052) rotate(180)" fill="#E6ACFF"/>
<path id="Rectangle 79" d="M18.4395 31.8999L18.4395 5.54634L36.5575 18.7231L18.4395 31.8999Z" fill="url(#paint0_linear_1505_2771)"/>
<path id="Rectangle 82" d="M18.4395 56.7783L18.4395 30.4248L36.5575 43.6015L18.4395 56.7783Z" fill="url(#paint1_linear_1505_2771)"/>
<path id="Rectangle 80" d="M30.7891 31.8999L30.7891 5.54634L48.9071 18.7231L30.7891 31.8999Z" fill="url(#paint2_linear_1505_2771)"/>
<path id="Rectangle 83" d="M30.7891 56.7783L30.7891 30.4248L48.9071 43.6015L30.7891 56.7783Z" fill="url(#paint3_linear_1505_2771)"/>
<path id="Rectangle 81" d="M6.99121 31.8999L6.99121 5.54634L25.1093 18.7231L6.99121 31.8999Z" fill="url(#paint4_linear_1505_2771)"/>
<path id="Rectangle 84" d="M6.99121 56.7783L6.99121 30.4248L25.1093 43.6015L6.99121 56.7783Z" fill="url(#paint5_linear_1505_2771)"/>
</g>
<defs>
<linearGradient id="paint0_linear_1505_2771" x1="21.1454" y1="18.6055" x2="33.6163" y2="18.6055" gradientUnits="userSpaceOnUse">
<stop stop-color="white" stop-opacity="0"/>
<stop offset="1" stop-color="white"/>
</linearGradient>
<linearGradient id="paint1_linear_1505_2771" x1="21.1454" y1="43.4839" x2="33.6163" y2="43.4839" gradientUnits="userSpaceOnUse">
<stop stop-color="white" stop-opacity="0"/>
<stop offset="1" stop-color="white"/>
</linearGradient>
<linearGradient id="paint2_linear_1505_2771" x1="33.495" y1="18.6055" x2="45.9659" y2="18.6055" gradientUnits="userSpaceOnUse">
<stop stop-color="white" stop-opacity="0"/>
<stop offset="1" stop-color="white"/>
</linearGradient>
<linearGradient id="paint3_linear_1505_2771" x1="33.495" y1="43.4839" x2="45.9659" y2="43.4839" gradientUnits="userSpaceOnUse">
<stop stop-color="white" stop-opacity="0"/>
<stop offset="1" stop-color="white"/>
</linearGradient>
<linearGradient id="paint4_linear_1505_2771" x1="9.69716" y1="18.6055" x2="22.168" y2="18.6055" gradientUnits="userSpaceOnUse">
<stop stop-color="white" stop-opacity="0"/>
<stop offset="1" stop-color="white"/>
</linearGradient>
<linearGradient id="paint5_linear_1505_2771" x1="9.69716" y1="43.4839" x2="22.168" y2="43.4839" gradientUnits="userSpaceOnUse">
<stop stop-color="white" stop-opacity="0"/>
<stop offset="1" stop-color="white"/>
</linearGradient>
</defs>
</svg>
