<svg width="38" height="38" viewBox="0 0 38 38" fill="none" xmlns="http://www.w3.org/2000/svg">
<g id="material-symbols:star-rounded">
<path id="Vector" d="M19.2606 26.777L12.9067 30.6047C12.626 30.7833 12.3325 30.8599 12.0263 30.8344C11.7201 30.8088 11.4521 30.7068 11.2225 30.5282C10.9928 30.3495 10.8142 30.1265 10.6866 29.8591C10.559 29.5917 10.5335 29.2916 10.6101 28.9588L12.2942 21.7245L6.66757 16.8634C6.41239 16.6337 6.25316 16.3719 6.18988 16.078C6.12659 15.784 6.14547 15.4972 6.24653 15.2175C6.34758 14.9378 6.50068 14.7082 6.70584 14.5285C6.91101 14.3489 7.1917 14.234 7.54793 14.184L14.9736 13.5333L17.8443 6.72009C17.9719 6.41388 18.17 6.18422 18.4384 6.03111C18.7068 5.87801 18.9809 5.80145 19.2606 5.80145C19.5403 5.80145 19.8143 5.87801 20.0828 6.03111C20.3512 6.18422 20.5492 6.41388 20.6768 6.72009L23.5476 13.5333L30.9732 14.184C31.3305 14.2351 31.6112 14.3499 31.8153 14.5285C32.0195 14.7071 32.1726 14.9368 32.2746 15.2175C32.3767 15.4982 32.3961 15.7855 32.3328 16.0795C32.2695 16.3735 32.1098 16.6348 31.8536 16.8634L26.2269 21.7245L27.9111 28.9588C27.9876 29.2905 27.9621 29.5906 27.8345 29.8591C27.707 30.1275 27.5283 30.3506 27.2987 30.5282C27.069 30.7058 26.8011 30.8078 26.4949 30.8344C26.1886 30.8609 25.8952 30.7844 25.6145 30.6047L19.2606 26.777Z" fill="#F2C923"/>
</g>
</svg>
