<svg width="32" height="32" viewBox="0 0 32 32" fill="none" xmlns="http://www.w3.org/2000/svg">
<g id="User Check">
<path id="Vector" fill-rule="evenodd" clip-rule="evenodd" d="M11.5208 0.959961C7.81278 0.959961 4.80078 3.97196 4.80078 7.67996C4.80078 11.388 7.81278 14.4 11.5208 14.4C15.2288 14.4 18.2408 11.388 18.2408 7.67996C18.2408 3.97196 15.2288 0.959961 11.5208 0.959961ZM11.5208 2.87996C14.1688 2.87996 16.3208 5.03196 16.3208 7.67996C16.3208 10.328 14.1688 12.48 11.5208 12.48C8.87278 12.48 6.72078 10.328 6.72078 7.67996C6.72078 5.03196 8.87278 2.87996 11.5208 2.87996ZM21.1208 12.48C16.3528 12.48 12.4808 16.352 12.4808 21.12C12.4808 25.888 16.3528 29.76 21.1208 29.76C25.8888 29.76 29.7608 25.888 29.7608 21.12C29.7608 16.352 25.8888 12.48 21.1208 12.48ZM21.1208 14.4C24.8288 14.4 27.8408 17.412 27.8408 21.12C27.8408 24.828 24.8288 27.84 21.1208 27.84C17.4128 27.84 14.4008 24.828 14.4008 21.12C14.4008 17.412 17.4128 14.4 21.1208 14.4Z" fill="#101010"/>
<path id="Vector_2" fill-rule="evenodd" clip-rule="evenodd" d="M17.388 21.8L19.424 23.836C19.604 24.016 19.848 24.116 20.1 24.116C20.356 24.116 20.6 24.016 20.78 23.836L24.852 19.764C25.228 19.388 25.228 18.78 24.852 18.404C24.48 18.032 23.872 18.032 23.496 18.404L20.1 21.8L18.744 20.44C18.368 20.068 17.76 20.068 17.388 20.44C17.012 20.816 17.012 21.424 17.388 21.8ZM0.959961 26.88C0.959961 27.644 1.26396 28.376 1.80396 28.916C2.34396 29.456 3.07596 29.76 3.83996 29.76H12.536C13.068 29.76 13.496 29.328 13.496 28.8C13.496 28.272 13.068 27.84 12.536 27.84H3.83996C3.58396 27.84 3.33996 27.74 3.15996 27.56L3.15596 27.556C2.97996 27.376 2.87996 27.132 2.87996 26.88C2.87996 22.5 6.13196 18.884 10.356 18.316C10.88 18.248 11.248 17.764 11.176 17.24C11.108 16.712 10.624 16.344 10.1 16.416C4.93996 17.108 0.959961 21.528 0.959961 26.88Z" fill="#101010"/>
</g>
</svg>
